<svg xmlns="http://www.w3.org/2000/svg" viewBox="0 0 71.8 76"><path d="M34.5 4A33.9 33.9 0 0 0 0 35a34 34 0 0 0 60 24.9 2.5 2.5 0 1 0-3.8-3.2 29 29 0 0 1-46-2c.8-.6 2-1.2 4.7-2.8l47.2-27.3a2.5 2.5 0 0 0 1.6-1.7 2.5 2.5 0 0 0-.5-2.3A34 34 0 0 0 34.5 4zm-1 5a29 29 0 0 1 24.3 12.4L12.5 47.6l-4.8 2.7A29 29 0 0 1 33.5 9z"/><path d="M34.4 0C28 0 21.5 1.6 15.6 5.1A1 1 0 1 0 16.7 7a34.8 34.8 0 0 1 44.6 8c11 13.3 11 32.7 0 46a34.9 34.9 0 0 1-40.7 10l2-.4-6-1.6a1 1 0 0 0-.4 0l-3.4-1 2.4 2.6a1 1 0 0 0 .3.3l4.3 4.4-.7-2.6a37 37 0 0 0 44-10.2 38.5 38.5 0 0 0 0-49A37.2 37.2 0 0 0 34.3 0z"/></svg>