<?xml version="1.0" encoding="UTF-8" standalone="no"?>
<svg
   xmlns:dc="http://purl.org/dc/elements/1.1/"
   xmlns:cc="http://creativecommons.org/ns#"
   xmlns:rdf="http://www.w3.org/1999/02/22-rdf-syntax-ns#"
   xmlns:svg="http://www.w3.org/2000/svg"
   xmlns="http://www.w3.org/2000/svg"
   viewBox="0 0 25 25"
   height="25"
   width="25"
   id="svg1480"
   version="1.1">
  <metadata
     id="metadata1486">
    <rdf:RDF>
      <cc:Work
         rdf:about="">
        <dc:format>image/svg+xml</dc:format>
        <dc:type
           rdf:resource="http://purl.org/dc/dcmitype/StillImage" />
        <dc:title></dc:title>
      </cc:Work>
    </rdf:RDF>
  </metadata>
  <defs
     id="defs1484" />
  <path
     id="path5205"
     d="M 9 1 L 9 8 L 11 8 L 11 3 L 17 3 L 17 1 L 9 1 z M 17 3 L 17 5 L 19 5 L 19 3 L 17 3 z M 19 5 L 19 14 L 17 14 L 17 16 L 21 16 L 21 5 L 19 5 z M 4 9 L 4 24 L 16 24 L 16 13 L 14 13 L 14 22 L 6 22 L 6 11 L 12 11 L 12 9 L 4 9 z M 12 11 L 12 13 L 14 13 L 14 11 L 12 11 z "
     style="fill:#000000;stroke:none;stroke-width:1px;stroke-linecap:butt;stroke-linejoin:miter;stroke-opacity:1" />
</svg>
