<?xml version="1.0" encoding="UTF-8" standalone="no"?>
<svg
   xmlns:dc="http://purl.org/dc/elements/1.1/"
   xmlns:cc="http://creativecommons.org/ns#"
   xmlns:rdf="http://www.w3.org/1999/02/22-rdf-syntax-ns#"
   xmlns:svg="http://www.w3.org/2000/svg"
   xmlns="http://www.w3.org/2000/svg"
   viewBox="0 0 25 25"
   height="25"
   width="25"
   id="svg5291"
   version="1.1">
  <metadata
     id="metadata5297">
    <rdf:RDF>
      <cc:Work
         rdf:about="">
        <dc:format>image/svg+xml</dc:format>
        <dc:type
           rdf:resource="http://purl.org/dc/dcmitype/StillImage" />
        <dc:title></dc:title>
      </cc:Work>
    </rdf:RDF>
  </metadata>
  <defs
     id="defs5295" />
  <path
     id="path5303"
     d="M 12 3 L 12 4 L 13 4 L 13 5 L 14 5 L 14 6 L 15 6 L 15 5 L 16 5 L 16 4 L 17 4 L 17 3 L 12 3 z M 9 8 L 9 10 L 17 10 L 17 8 L 9 8 z M 15 11 L 15 13 L 21 13 L 21 11 L 15 11 z M 4 14 L 4 16 L 21 16 L 21 14 L 4 14 z M 4 17 L 4 19 L 9 19 L 9 17 L 4 17 z M 11 20 L 11 22 L 19 22 L 19 20 L 11 20 z "
     style="fill:#000000;stroke:none;stroke-width:1px;stroke-linecap:butt;stroke-linejoin:miter;stroke-opacity:1" />
</svg>
