<?xml version="1.0" encoding="UTF-8" standalone="no"?>
<svg
   xmlns:dc="http://purl.org/dc/elements/1.1/"
   xmlns:cc="http://creativecommons.org/ns#"
   xmlns:rdf="http://www.w3.org/1999/02/22-rdf-syntax-ns#"
   xmlns:svg="http://www.w3.org/2000/svg"
   xmlns="http://www.w3.org/2000/svg"
   viewBox="0 0 25 25"
   height="25"
   width="25"
   id="svg5398"
   version="1.1">
  <metadata
     id="metadata5404">
    <rdf:RDF>
      <cc:Work
         rdf:about="">
        <dc:format>image/svg+xml</dc:format>
        <dc:type
           rdf:resource="http://purl.org/dc/dcmitype/StillImage" />
        <dc:title></dc:title>
      </cc:Work>
    </rdf:RDF>
  </metadata>
  <defs
     id="defs5402" />
  <path
     id="path5410"
     d="M 6 1 L 6 3 L 19 3 L 19 1 L 6 1 z M 19 3 L 19 22 L 21 22 L 21 3 L 19 3 z M 19 22 L 6 22 L 6 24 L 19 24 L 19 22 z M 6 22 L 6 3 L 4 3 L 4 4 L 2 4 L 2 6 L 4 6 L 4 9 L 2 9 L 2 11 L 4 11 L 4 14 L 2 14 L 2 16 L 4 16 L 4 19 L 2 19 L 2 21 L 4 21 L 4 22 L 6 22 z M 11 4 L 11 6 L 9 6 L 9 9 L 11 9 L 11 11 L 14 11 L 14 9 L 16 9 L 16 6 L 14 6 L 14 4 L 11 4 z M 9 13 L 9 15 L 7 15 L 7 21 L 18 21 L 18 15 L 16 15 L 16 13 L 9 13 z "
     style="fill:#000000;stroke:none;stroke-width:1px;stroke-linecap:butt;stroke-linejoin:miter;stroke-opacity:1" />
</svg>
